<svg  viewBox="0 0 512 512" xmlns="http://www.w3.org/2000/svg"><path fill="#fff" d="m 281.22825,49 -124.2,124.2 -124.199992,0 0,165.6 124.199992,0 124.2,124.2 0,-414 z m 66.57617,35.795533 -6.02919,22.494577 C 409.13636,125.33792 455.88477,186.26014 455.88477,256 c 0,69.73778 -46.74841,130.66086 -114.10954,148.7098 l 6.02919,22.4945 C 425.23535,406.45653 479.17174,336.1633 479.17174,256 c 0,-80.16442 -53.93639,-150.4566 -131.36732,-171.204467 z m -16.07446,59.984927 -6.0265,22.49437 c 40.21389,10.77394 68.0813,47.09467 68.0813,88.72517 0,41.6305 -27.86741,77.95123 -68.0813,88.72517 l 6.0265,22.49437 C 382.01375,353.7454 417.07175,308.05642 417.07175,256 c 0,-52.0577 -35.058,-97.7454 -85.34178,-111.21954 z m -16.07353,59.98164 -6.02532,22.49469 c 13.06204,3.50211 22.05365,15.21943 22.05365,28.74321 0,13.52378 -8.99161,25.2411 -22.05511,28.74321 l 6.02678,22.49469 c 23.13696,-6.19967 39.31683,-27.2852 39.31683,-51.2379 0,-23.95146 -16.17987,-45.03823 -39.31683,-51.2379 z"></path></svg>
